<svg xmlns="http://www.w3.org/2000/svg" viewBox="0 0 180 180" role="img" aria-label="Rubel Canvas">
  <defs>
    <linearGradient id="rubel-indigo" x1="0%" y1="0%" x2="100%" y2="100%">
      <stop offset="0%" stop-color="#818CF8" />
      <stop offset="100%" stop-color="#6366F1" />
    </linearGradient>
  </defs>
  <rect width="180" height="180" rx="36" fill="#020617" />
  <path
    fill="url(#rubel-indigo)"
    d="M90 42c2 27 23 48 48 48-25 2-46 23-48 48-2-25-23-46-48-48 25-2 46-23 48-48z"
  />
  <path
    fill="#A5B4FC"
    d="M127 50c1 12 9 20 20 20-11 1-19 9-20 20-1-11-9-19-20-20 11-1 19-9 20-20z"
  />
  <circle cx="59" cy="122" r="5" fill="#6366F1" opacity="0.85" />
</svg>
