<svg xmlns="http://www.w3.org/2000/svg" viewBox="0 0 512 512" role="img" aria-label="Rubel Canvas">
  <defs>
    <linearGradient id="rubel-indigo" x1="0%" y1="0%" x2="100%" y2="100%">
      <stop offset="0%" stop-color="#818CF8" />
      <stop offset="100%" stop-color="#6366F1" />
    </linearGradient>
  </defs>
  <rect width="512" height="512" rx="112" fill="#020617" />
  <path
    fill="url(#rubel-indigo)"
    d="M256 118c6 78 66 138 138 138-72 6-132 66-138 138-6-72-66-132-138-138 72-6 132-66 138-138z"
  />
  <path
    fill="#A5B4FC"
    d="M362 142c3 34 27 58 58 58-31 3-55 27-58 58-3-31-27-55-58-58 31-3 55-27 58-58z"
  />
  <circle cx="168" cy="348" r="14" fill="#6366F1" opacity="0.85" />
</svg>
